<svg width="85" height="85" viewBox="0 0 85 85" fill="none" xmlns="http://www.w3.org/2000/svg">
<g filter="url(#filter0_d_943_42912)">
<path d="M42.5 69C57.1355 69 69 57.1355 69 42.5C69 27.8645 57.1355 16 42.5 16C27.8645 16 16 27.8645 16 42.5C16 57.1355 27.8645 69 42.5 69Z" fill="url(#paint0_linear_943_42912)"/>
<path d="M42.5001 63.5678C54.1356 63.5678 63.5681 54.1353 63.5681 42.4997C63.5681 30.8641 54.1356 21.4316 42.5001 21.4316C30.8645 21.4316 21.432 30.8641 21.432 42.4997C21.432 54.1353 30.8645 63.5678 42.5001 63.5678Z" fill="url(#paint1_linear_943_42912)"/>
<path d="M42.5 16.6504C28.2238 16.6504 16.6509 28.2233 16.6509 42.4995C16.6509 56.7756 28.2238 68.3486 42.5 68.3486C56.7761 68.3486 68.3491 56.7756 68.3491 42.4995C68.3491 28.2233 56.7761 16.6504 42.5 16.6504ZM42.5 63.5676C30.8649 63.5676 21.4319 54.1354 21.4319 42.4995C21.4319 30.8636 30.8641 21.4314 42.5 21.4314C54.1358 21.4314 63.568 30.8636 63.568 42.4995C63.568 54.1354 54.1358 63.5676 42.5 63.5676Z" fill="url(#paint2_linear_943_42912)"/>
<path opacity="0.3" d="M42.5 17.5957C45.8621 17.5957 49.1238 18.2538 52.1935 19.5524C55.1589 20.8064 57.8223 22.6022 60.1096 24.8903C62.3969 27.1777 64.1927 29.8411 65.4475 32.8064C66.7461 35.8761 67.4042 39.1378 67.4042 42.4999C67.4042 45.862 66.7461 49.1237 65.4475 52.1934C64.1935 55.1587 62.3977 57.8221 60.1096 60.1095C57.8223 62.3968 55.1589 64.1926 52.1935 65.4474C49.1238 66.746 45.8621 67.4041 42.5 67.4041C39.1379 67.4041 35.8762 66.746 32.8065 65.4474C29.8412 64.1934 27.1778 62.3976 24.8905 60.1095C22.6031 57.8221 20.8073 55.1587 19.5525 52.1934C18.2539 49.1237 17.5958 45.862 17.5958 42.4999C17.5958 39.1378 18.2539 35.8761 19.5525 32.8064C20.8065 29.8411 22.6023 27.1777 24.8905 24.8903C27.1786 22.603 29.8412 20.8072 32.8065 19.5524C35.8762 18.2538 39.1379 17.5957 42.5 17.5957ZM42.5 64.5336C54.649 64.5336 64.5337 54.6497 64.5337 42.4999C64.5337 30.3502 54.649 20.467 42.5 20.467C30.3511 20.467 20.4664 30.351 20.4664 42.5007C20.4664 54.6505 30.3503 64.5344 42.5 64.5344V64.5336Z" fill="white"/>
<path d="M42.5001 68.4136C28.2104 68.4136 16.5848 56.7881 16.5848 42.4992C16.5848 28.2103 28.2104 16.584 42.5001 16.584C56.7898 16.584 68.4145 28.2095 68.4145 42.4984C68.4145 56.7873 56.789 68.4128 42.5001 68.4128V68.4136ZM42.5001 16.7154C28.2829 16.7154 16.7163 28.282 16.7163 42.4992C16.7163 56.7164 28.2829 68.283 42.5001 68.283C56.7173 68.283 68.2838 56.7164 68.2838 42.4992C68.2838 28.282 56.7173 16.7154 42.5001 16.7154ZM42.5001 63.6326C30.8475 63.6326 21.3667 54.1526 21.3667 42.4992C21.3667 30.8458 30.8467 21.3658 42.5001 21.3658C54.1535 21.3658 63.6335 30.8458 63.6335 42.4992C63.6335 54.1526 54.1535 63.6326 42.5001 63.6326ZM42.5001 21.4973C30.9192 21.4973 21.4973 30.9191 21.4973 42.5C21.4973 54.0809 30.9192 63.5027 42.5001 63.5027C54.081 63.5027 63.5028 54.0809 63.5028 42.5C63.5028 30.9191 54.081 21.4965 42.5001 21.4965V21.4973Z" fill="#FEF8C8"/>
<path d="M42.5 62.6404C53.6239 62.6404 62.6415 53.6228 62.6415 42.4989C62.6415 31.3751 53.6239 22.3574 42.5 22.3574C31.3762 22.3574 22.3585 31.3751 22.3585 42.4989C22.3585 53.6228 31.3762 62.6404 42.5 62.6404Z" fill="#FB9600"/>
<path d="M42.4999 62.4904C53.5397 62.4904 62.4893 53.5408 62.4893 42.501C62.4893 31.4612 53.5397 22.5117 42.4999 22.5117C31.4601 22.5117 22.5106 31.4612 22.5106 42.501C22.5106 53.5408 31.4601 62.4904 42.4999 62.4904Z" fill="#F39200"/>
<path d="M56.9276 20.9686L56.6981 20.8164L55.1127 22.4018C54.5024 23.0121 54.4714 24.0415 55.0816 24.6517L60.3463 29.9164C60.9565 30.5266 61.9859 30.4956 62.5961 29.8853L64.1816 28.2999L64.0294 28.0704C63.0654 26.6164 58.3816 21.9318 56.9268 20.9678L56.9276 20.9686Z" fill="url(#paint3_linear_943_42912)"/>
<path d="M61.2377 23.7626C60.0793 22.6042 58.8404 21.5764 57.5386 20.6777L55.962 22.2544C55.2951 22.9213 55.2266 23.9442 55.809 24.5266L60.4729 29.1905C61.0561 29.7737 62.0783 29.7044 62.7451 29.0376L64.3218 27.4609C63.4231 26.1599 62.3953 24.9202 61.2369 23.7618L61.2377 23.7626Z" fill="url(#paint4_linear_943_42912)"/>
<path d="M61.2379 23.7612C60.0922 22.6156 58.8669 21.5974 57.581 20.7051L56.0226 22.2634C55.363 22.9231 55.2945 23.9357 55.8713 24.5125L60.4866 29.1278C61.0634 29.7047 62.0752 29.6369 62.7357 28.9765L64.294 27.4181C63.4017 26.1322 62.3835 24.9069 61.2379 23.7612Z" fill="#071A28"/>
<path d="M64.3227 27.461L62.746 29.0377C62.0791 29.7046 61.0562 29.7731 60.4738 29.1907L55.8099 24.5268C55.2267 23.9436 55.296 22.9214 55.9628 22.2546L57.5395 20.6779C57.4766 20.6341 57.4128 20.5919 57.3499 20.5488L55.5135 22.3852C54.9032 22.9955 54.9032 23.9938 55.5135 24.6049L60.3965 29.4879C61.0068 30.0981 62.005 30.0981 62.6161 29.4879L64.4525 27.6515C64.4095 27.5885 64.3673 27.5248 64.3235 27.4618L64.3227 27.461Z" fill="url(#paint5_linear_943_42912)"/>
<path d="M37.4775 17.0752L37.2074 17.1301V19.3721C37.2074 20.2349 37.9133 20.9854 38.7769 20.9854H46.2221C47.0849 20.9854 47.7916 20.2357 47.7916 19.3721V17.1294L47.5215 17.0744C45.8118 16.7278 39.1872 16.7278 37.4775 17.0744V17.0752Z" fill="url(#paint6_linear_943_42912)"/>
<path d="M42.5 16C40.8619 16 39.259 16.1498 37.703 16.4342V18.6642C37.703 19.6075 38.3778 20.3795 39.2016 20.3795H45.7975C46.6221 20.3795 47.2961 19.6075 47.2961 18.6642V16.4342C45.7402 16.1498 44.1372 16 42.4992 16H42.5Z" fill="url(#paint7_linear_943_42912)"/>
<path d="M42.4999 16C40.8794 16 39.2932 16.1458 37.7532 16.4246V18.6283C37.7532 19.5621 38.4208 20.3253 39.2366 20.3253H45.764C46.5799 20.3253 47.2475 19.5613 47.2475 18.6283V16.4246C45.7075 16.1458 44.1212 16 42.5007 16H42.4999Z" fill="#FA184B"/>
<path d="M47.2969 16.4336V18.6636C47.2969 19.6069 46.6221 20.3789 45.7983 20.3789H39.2023C38.3778 20.3789 37.7037 19.6069 37.7037 18.6636V16.4336C37.6281 16.4471 37.5532 16.4623 37.4783 16.4766V19.0739C37.4783 19.9367 38.1842 20.6434 39.0478 20.6434H45.9536C46.8165 20.6434 47.5231 19.9375 47.5231 19.0739V16.4766C47.4482 16.4623 47.3733 16.4471 47.2977 16.4336H47.2969Z" fill="url(#paint8_linear_943_42912)"/>
<path d="M20.9698 28.0724L20.8176 28.3018L22.4031 29.8873C23.0133 30.4975 24.0427 30.5286 24.653 29.9183L29.9176 24.6537C30.5279 24.0434 30.4968 23.0141 29.8865 22.4038L28.3011 20.8184L28.0716 20.9705C26.6176 21.9345 21.933 26.6184 20.969 28.0732L20.9698 28.0724Z" fill="url(#paint9_linear_943_42912)"/>
<path d="M23.7615 23.7618C22.6031 24.9202 21.5753 26.1591 20.6766 27.4609L22.2533 29.0376C22.9202 29.7044 23.9431 29.7729 24.5255 29.1905L29.1894 24.5266C29.7726 23.9434 29.7033 22.9213 29.0365 22.2544L27.4598 20.6777C26.1588 21.5764 24.9191 22.6042 23.7607 23.7626L23.7615 23.7618Z" fill="url(#paint10_linear_943_42912)"/>
<path d="M23.7614 23.7632C22.6157 24.9089 21.5975 26.1342 20.7052 27.4201L22.2636 28.9784C22.9232 29.6381 23.9358 29.7066 24.5127 29.1298L29.128 24.5145C29.7048 23.9377 29.6371 22.9259 28.9766 22.2654L27.4182 20.707C26.1324 21.5993 24.907 22.6175 23.7614 23.7632Z" fill="#071A28"/>
<path d="M27.4606 20.6787L29.0372 22.2554C29.7041 22.9222 29.7726 23.9452 29.1902 24.5276L24.5263 29.1915C23.9431 29.7747 22.9209 29.7054 22.2541 29.0385L20.6774 27.4618C20.6336 27.5248 20.5914 27.5885 20.5483 27.6515L22.3847 29.4879C22.995 30.0981 23.9933 30.0981 24.6044 29.4879L29.4874 24.6049C30.0976 23.9946 30.0976 22.9963 29.4874 22.3852L27.651 20.5488C27.588 20.5919 27.5243 20.6341 27.4613 20.6779L27.4606 20.6787Z" fill="url(#paint11_linear_943_42912)"/>
<path d="M17.074 47.5212L17.1289 47.7913H19.3709C20.2337 47.7913 20.9842 47.0854 20.9842 46.2217V38.7765C20.9842 37.9137 20.2345 37.207 19.3709 37.207H17.1281L17.0732 37.4771C16.7266 39.1868 16.7266 45.8114 17.0732 47.5212H17.074Z" fill="url(#paint12_linear_943_42912)"/>
<path d="M16 42.4993C16 44.1373 16.1498 45.7403 16.4342 47.2962H18.6642C19.6075 47.2962 20.3795 46.6214 20.3795 45.7976V39.2017C20.3795 38.3771 19.6075 37.7031 18.6642 37.7031H16.4342C16.1498 39.2591 16 40.8621 16 42.5001V42.4993Z" fill="url(#paint13_linear_943_42912)"/>
<path d="M16 42.4995C16 44.12 16.1458 45.7063 16.4246 47.2463H18.6283C19.5621 47.2463 20.3253 46.5786 20.3253 45.7628V39.2354C20.3253 38.4196 19.5613 37.752 18.6283 37.752H16.4246C16.1458 39.292 16 40.8782 16 42.4987V42.4995Z" fill="#FA184B"/>
<path d="M16.4342 37.7009H18.6642C19.6075 37.7009 20.3795 38.3757 20.3795 39.1995V45.7954C20.3795 46.62 19.6075 47.294 18.6642 47.294H16.4342C16.4477 47.3697 16.4629 47.4446 16.4772 47.5195H19.0745C19.9373 47.5195 20.644 46.8136 20.644 45.95V39.0441C20.644 38.1813 19.9381 37.4746 19.0745 37.4746H16.4772C16.4629 37.5495 16.4477 37.6244 16.4342 37.7001V37.7009Z" fill="url(#paint14_linear_943_42912)"/>
<path d="M28.0716 64.0309L28.3011 64.1831L29.8865 62.5976C30.4968 61.9873 30.5279 60.958 29.9176 60.3477L24.653 55.0831C24.0427 54.4728 23.0133 54.5039 22.4031 55.1142L20.8176 56.6996L20.9698 56.9291C21.9338 58.383 26.6176 63.0677 28.0724 64.0317L28.0716 64.0309Z" fill="url(#paint15_linear_943_42912)"/>
<path d="M23.7615 61.238C24.9199 62.3964 26.1588 63.4242 27.4606 64.3228L29.0373 62.7462C29.7042 62.0793 29.7727 61.0563 29.1903 60.474L24.5264 55.81C23.9432 55.2269 22.921 55.2962 22.2542 55.963L20.6775 57.5397C21.5762 58.8407 22.6039 60.0804 23.7623 61.2388L23.7615 61.238Z" fill="url(#paint16_linear_943_42912)"/>
<path d="M23.7616 61.237C24.9073 62.3827 26.1326 63.4009 27.4185 64.2932L28.9768 62.7349C29.6365 62.0752 29.705 61.0626 29.1282 60.4858L24.5129 55.8704C23.9361 55.2936 22.9243 55.3613 22.2638 56.0218L20.7054 57.5802C21.5978 58.8661 22.6159 60.0914 23.7616 61.237Z" fill="#071A28"/>
<path d="M20.6767 57.5412L22.2534 55.9645C22.9203 55.2976 23.9432 55.2291 24.5256 55.8115L29.1895 60.4754C29.7727 61.0586 29.7034 62.0808 29.0366 62.7476L27.4599 64.3243C27.5228 64.3681 27.5866 64.4104 27.6495 64.4534L29.4859 62.617C30.0962 62.0067 30.0962 61.0084 29.4859 60.3974L24.6029 55.5143C23.9926 54.9041 22.9944 54.9041 22.3833 55.5143L20.5469 57.3508C20.5899 57.4137 20.6321 57.4774 20.6759 57.5404L20.6767 57.5412Z" fill="url(#paint17_linear_943_42912)"/>
<path d="M47.5217 67.9278L47.7917 67.8728V65.6309C47.7917 64.7681 47.0859 64.0176 46.2222 64.0176H38.777C37.9142 64.0176 37.2075 64.7673 37.2075 65.6309V67.8728L37.4776 67.9278C39.1873 68.2744 45.8119 68.2744 47.5217 67.9278Z" fill="url(#paint18_linear_943_42912)"/>
<path d="M42.5 69.0006C44.138 69.0006 45.741 68.8508 47.297 68.5664V66.3364C47.297 65.3931 46.6222 64.6211 45.7984 64.6211H39.2025C38.3779 64.6211 37.7039 65.3931 37.7039 66.3364V68.5664C39.2598 68.8508 40.8628 69.0006 42.5008 69.0006H42.5Z" fill="url(#paint19_linear_943_42912)"/>
<path d="M42.5001 69.0011C44.1206 69.0011 45.7069 68.8553 47.2469 68.5765V66.3728C47.2469 65.439 46.5793 64.6758 45.7634 64.6758H39.236C38.4202 64.6758 37.7526 65.4398 37.7526 66.3728V68.5765C39.2926 68.8553 40.8788 69.0011 42.4993 69.0011H42.5001Z" fill="#FA184B"/>
<path d="M37.7031 68.5672V66.3372C37.7031 65.3939 38.3779 64.6219 39.2017 64.6219H45.7976C46.6222 64.6219 47.2962 65.3939 47.2962 66.3372V68.5672C47.3719 68.5537 47.4468 68.5385 47.5217 68.5242V65.9269C47.5217 65.0641 46.8158 64.3574 45.9522 64.3574H39.0463C38.1835 64.3574 37.4768 65.0633 37.4768 65.9269V68.5242C37.5517 68.5385 37.6266 68.5537 37.7023 68.5672H37.7031Z" fill="url(#paint20_linear_943_42912)"/>
<path d="M64.0302 56.9271L64.1823 56.6977L62.5969 55.1122C61.9866 54.5019 60.9573 54.4709 60.347 55.0811L55.0824 60.3458C54.4721 60.956 54.5032 61.9854 55.1134 62.5957L56.6989 64.1811L56.9283 64.0289C58.3823 63.0649 63.0669 58.3811 64.031 56.9263L64.0302 56.9271Z" fill="url(#paint21_linear_943_42912)"/>
<path d="M61.2376 61.2365C62.396 60.0781 63.4238 58.8392 64.3225 57.5374L62.7458 55.9607C62.0789 55.2939 61.056 55.2254 60.4736 55.8078L55.8097 60.4717C55.2265 61.0549 55.2958 62.077 55.9626 62.7439L57.5393 64.3206C58.8403 63.4219 60.08 62.3941 61.2384 61.2357L61.2376 61.2365Z" fill="url(#paint22_linear_943_42912)"/>
<path d="M61.2378 61.2368C62.3834 60.0911 63.4016 58.8658 64.2939 57.5799L62.7356 56.0215C62.0759 55.3619 61.0633 55.2934 60.4865 55.8702L55.8712 60.4855C55.2944 61.0623 55.3621 62.0741 56.0225 62.7346L57.5809 64.2929C58.8668 63.4006 60.0921 62.3824 61.2378 61.2368Z" fill="#071A28"/>
<path d="M57.5393 64.3216L55.9627 62.7449C55.2958 62.078 55.2273 61.0551 55.8097 60.4727L60.4736 55.8088C61.0568 55.2256 62.079 55.2949 62.7458 55.9617L64.3225 57.5384C64.3663 57.4755 64.4085 57.4117 64.4515 57.3488L62.6151 55.5124C62.0049 54.9021 61.0066 54.9021 60.3955 55.5124L55.5125 60.3954C54.9022 61.0057 54.9022 62.0047 55.5125 62.615L57.3489 64.4514C57.4119 64.4084 57.4756 64.3662 57.5385 64.3224L57.5393 64.3216Z" fill="url(#paint23_linear_943_42912)"/>
<path d="M67.926 37.4771L67.871 37.207H65.6291C64.7662 37.207 64.0157 37.9129 64.0157 38.7765V46.2217C64.0157 47.0846 64.7654 47.7913 65.6291 47.7913H67.871L67.926 47.5212C68.2725 45.8114 68.2725 39.1868 67.926 37.4771Z" fill="url(#paint24_linear_943_42912)"/>
<path d="M68.9991 42.4981C68.9991 40.8601 68.8493 39.2571 68.5649 37.7012H66.3349C65.3916 37.7012 64.6196 38.376 64.6196 39.1998V45.7957C64.6196 46.6203 65.3916 47.2943 66.3349 47.2943H68.5649C68.8493 45.7383 68.9991 44.1354 68.9991 42.4973V42.4981Z" fill="url(#paint25_linear_943_42912)"/>
<path d="M68.9991 42.4987C68.9991 40.8782 68.8533 39.292 68.5745 37.752H66.3708C65.4371 37.752 64.6738 38.4196 64.6738 39.2354V45.7628C64.6738 46.5786 65.4379 47.2463 66.3708 47.2463H68.5745C68.8533 45.7063 68.9991 44.12 68.9991 42.4995V42.4987Z" fill="#FA184B"/>
<path d="M68.5657 47.2952H66.3358C65.3925 47.2952 64.6205 46.6203 64.6205 45.7966V39.2006C64.6205 38.376 65.3925 37.702 66.3358 37.702H68.5657C68.5522 37.6263 68.5371 37.5515 68.5227 37.4766H65.9255C65.0626 37.4766 64.356 38.1824 64.356 39.0461V45.9519C64.356 46.8147 65.0618 47.5214 65.9255 47.5214H68.5227C68.5371 47.4465 68.5522 47.3716 68.5657 47.296V47.2952Z" fill="url(#paint26_linear_943_42912)"/>
<path d="M54.3359 54.3355C60.8725 47.799 60.8725 37.201 54.3359 30.6645C47.7994 24.1279 37.2015 24.1279 30.6649 30.6645C24.1283 37.2011 24.1283 47.7989 30.6649 54.3355C37.2015 60.8721 47.7994 60.8721 54.3359 54.3355Z" fill="#D07D00"/>
<path d="M54.2115 54.211C60.6793 47.7432 60.6793 37.2568 54.2115 30.789C47.7436 24.3211 37.2572 24.3211 30.7894 30.789C24.3216 37.2568 24.3216 47.7432 30.7894 54.211C37.2572 60.6789 47.7436 60.6789 54.2115 54.211Z" fill="url(#paint27_linear_943_42912)"/>
<path d="M42.4999 58.2042C51.1734 58.2042 58.2046 51.173 58.2046 42.4996C58.2046 33.8261 51.1734 26.7949 42.4999 26.7949C33.8265 26.7949 26.7953 33.8261 26.7953 42.4996C26.7953 51.173 33.8265 58.2042 42.4999 58.2042Z" fill="#F39200"/>
<path d="M50.5846 50.5842C55.0494 46.1194 55.0494 38.8806 50.5846 34.4158C46.1199 29.9511 38.8811 29.9511 34.4163 34.4158C29.9516 38.8806 29.9516 46.1194 34.4163 50.5842C38.8811 55.0489 46.1199 55.0489 50.5846 50.5842Z" fill="#F5A833"/>
<path d="M42.4999 26.7949C33.827 26.7949 26.7953 33.8258 26.7953 42.4996C26.7953 51.1733 33.8262 58.2042 42.4999 58.2042C51.1737 58.2042 58.2046 51.1733 58.2046 42.4996C58.2046 33.8258 51.1737 26.7949 42.4999 26.7949ZM42.4999 55.2986C35.4308 55.2986 29.7009 49.5679 29.7009 42.4996C29.7009 35.4312 35.4316 29.7005 42.4999 29.7005C49.5683 29.7005 55.299 35.4312 55.299 42.4996C55.299 49.5679 49.5683 55.2986 42.4999 55.2986Z" fill="url(#paint28_linear_943_42912)"/>
<path d="M42.4999 58.266C33.8063 58.266 26.7332 51.1929 26.7332 42.4992C26.7332 33.8056 33.8063 26.7324 42.4999 26.7324C51.1936 26.7324 58.2667 33.8056 58.2667 42.4992C58.2667 51.1929 51.1936 58.266 42.4999 58.266ZM42.4999 26.8575C33.8748 26.8575 26.8582 33.8749 26.8582 42.5C26.8582 51.1251 33.8756 58.1417 42.4999 58.1417C51.1243 58.1417 58.1417 51.1243 58.1417 42.5C58.1417 33.8757 51.1243 26.8575 42.4999 26.8575ZM42.4999 55.3612C35.4077 55.3612 29.6387 49.5915 29.6387 42.5C29.6387 35.4085 35.4085 29.638 42.4999 29.638C49.5914 29.638 55.362 35.4077 55.362 42.5C55.362 49.5923 49.5922 55.3612 42.4999 55.3612ZM42.4999 29.7623C35.477 29.7623 29.763 35.4763 29.763 42.4992C29.763 49.5222 35.477 55.2361 42.4999 55.2361C49.5229 55.2361 55.2369 49.5222 55.2369 42.4992C55.2369 35.4763 49.5229 29.7623 42.4999 29.7623Z" fill="#FEF8C8"/>
<path opacity="0.3" d="M42.5 27.3691C44.5427 27.3691 46.5241 27.7691 48.3892 28.5578C50.1906 29.3195 51.8087 30.411 53.1989 31.8004C54.5884 33.1899 55.6799 34.808 56.4415 36.6101C57.2303 38.4752 57.6302 40.4566 57.6302 42.4994C57.6302 44.5421 57.2303 46.5235 56.4415 48.3886C55.6799 50.19 54.5884 51.8081 53.1989 53.1983C51.8095 54.5878 50.1914 55.6793 48.3892 56.4409C46.5241 57.2296 44.5427 57.6296 42.5 57.6296C40.4572 57.6296 38.4758 57.2296 36.6107 56.4409C34.8094 55.6785 33.1913 54.5878 31.801 53.1983C30.4116 51.8089 29.3201 50.1908 28.5584 48.3886C27.7697 46.5235 27.3698 44.5421 27.3698 42.4994C27.3698 40.4566 27.7697 38.4752 28.5584 36.6101C29.3201 34.8088 30.4116 33.1907 31.801 31.8004C33.1905 30.411 34.8086 29.3195 36.6107 28.5578C38.4758 27.7691 40.4572 27.3691 42.5 27.3691ZM42.5 55.8856C49.8807 55.8856 55.8862 49.8808 55.8862 42.4994C55.8862 35.1179 49.8814 29.1131 42.5 29.1131C35.1185 29.1131 29.1137 35.1179 29.1137 42.4994C29.1137 49.8808 35.1185 55.8856 42.5 55.8856Z" fill="white"/>
<path d="M42.4996 47.965L36.6694 51.0342L37.783 44.5344L33.0675 39.9306L39.5845 38.9826L42.4996 33.0684L45.4137 38.9826L51.9316 39.9306L47.2151 44.5344L48.3288 51.0342L42.4996 47.965Z" fill="url(#paint29_linear_943_42912)"/>
</g>
<defs>
<filter id="filter0_d_943_42912" x="-6" y="-5" width="96" height="96" filterUnits="userSpaceOnUse" color-interpolation-filters="sRGB">
<feFlood flood-opacity="0" result="BackgroundImageFix"/>
<feColorMatrix in="SourceAlpha" type="matrix" values="0 0 0 0 0 0 0 0 0 0 0 0 0 0 0 0 0 0 127 0" result="hardAlpha"/>
<feOffset/>
<feGaussianBlur stdDeviation="8"/>
<feColorMatrix type="matrix" values="0 0 0 0 1 0 0 0 0 0.550824 0 0 0 0 0.0235294 0 0 0 0.6 0"/>
<feBlend mode="normal" in2="BackgroundImageFix" result="effect1_dropShadow_943_42912"/>
<feBlend mode="normal" in="SourceGraphic" in2="effect1_dropShadow_943_42912" result="shape"/>
</filter>
<linearGradient id="paint0_linear_943_42912" x1="42.5" y1="16" x2="42.5" y2="68.9992" gradientUnits="userSpaceOnUse">
<stop stop-color="#F8BE66"/>
<stop offset="1" stop-color="#B66E00"/>
</linearGradient>
<linearGradient id="paint1_linear_943_42912" x1="42.5001" y1="63.567" x2="42.5001" y2="21.4316" gradientUnits="userSpaceOnUse">
<stop stop-color="#F8BE66"/>
<stop offset="1" stop-color="#B66E00"/>
</linearGradient>
<linearGradient id="paint2_linear_943_42912" x1="29.5726" y1="20.1097" x2="55.4265" y2="64.8893" gradientUnits="userSpaceOnUse">
<stop stop-color="#DAA834"/>
<stop offset="0.13" stop-color="#FDF3A4"/>
<stop offset="0.3" stop-color="#D8A70A"/>
<stop offset="0.33" stop-color="#DBAD18"/>
<stop offset="0.41" stop-color="#E2BB34"/>
<stop offset="0.47" stop-color="#E6C444"/>
<stop offset="0.52" stop-color="#E8C74B"/>
<stop offset="0.7" stop-color="#F2DD77"/>
<stop offset="0.85" stop-color="#D08E30"/>
<stop offset="1" stop-color="#E3BD37"/>
</linearGradient>
<linearGradient id="paint3_linear_943_42912" x1="60.6625" y1="24.3359" x2="57.7144" y2="27.2839" gradientUnits="userSpaceOnUse">
<stop stop-color="#DAA834"/>
<stop offset="0.13" stop-color="#FDF3A4"/>
<stop offset="0.36" stop-color="#D8A70A"/>
<stop offset="0.41" stop-color="#DBAD18"/>
<stop offset="0.52" stop-color="#E2BB34"/>
<stop offset="0.63" stop-color="#E6C444"/>
<stop offset="0.7" stop-color="#E8C74B"/>
<stop offset="0.78" stop-color="#E4BF47"/>
<stop offset="0.88" stop-color="#DCAC3E"/>
<stop offset="1" stop-color="#D08E30"/>
</linearGradient>
<linearGradient id="paint4_linear_943_42912" x1="61.2382" y1="23.7625" x2="58.1414" y2="26.8592" gradientUnits="userSpaceOnUse">
<stop stop-color="#F2F2F2"/>
<stop offset="1" stop-color="white"/>
</linearGradient>
<linearGradient id="paint5_linear_943_42912" x1="60.9313" y1="24.0689" x2="57.9545" y2="27.0456" gradientUnits="userSpaceOnUse">
<stop stop-color="#E6E6E6"/>
<stop offset="1" stop-color="#8C8C8C"/>
</linearGradient>
<linearGradient id="paint6_linear_943_42912" x1="42.4999" y1="16.8147" x2="42.4999" y2="20.9846" gradientUnits="userSpaceOnUse">
<stop stop-color="#DAA834"/>
<stop offset="0.13" stop-color="#FDF3A4"/>
<stop offset="0.36" stop-color="#D8A70A"/>
<stop offset="0.41" stop-color="#DBAD18"/>
<stop offset="0.52" stop-color="#E2BB34"/>
<stop offset="0.63" stop-color="#E6C444"/>
<stop offset="0.7" stop-color="#E8C74B"/>
<stop offset="0.78" stop-color="#E4BF47"/>
<stop offset="0.88" stop-color="#DCAC3E"/>
<stop offset="1" stop-color="#D08E30"/>
</linearGradient>
<linearGradient id="paint7_linear_943_42912" x1="42.5" y1="16" x2="42.5" y2="20.3787" gradientUnits="userSpaceOnUse">
<stop stop-color="#F2F2F2"/>
<stop offset="1" stop-color="white"/>
</linearGradient>
<linearGradient id="paint8_linear_943_42912" x1="42.4999" y1="16.4336" x2="42.4999" y2="20.6426" gradientUnits="userSpaceOnUse">
<stop stop-color="#E6E6E6"/>
<stop offset="1" stop-color="#8C8C8C"/>
</linearGradient>
<linearGradient id="paint9_linear_943_42912" x1="24.3367" y1="24.3378" x2="27.2853" y2="27.2864" gradientUnits="userSpaceOnUse">
<stop stop-color="#DAA834"/>
<stop offset="0.13" stop-color="#FDF3A4"/>
<stop offset="0.36" stop-color="#D8A70A"/>
<stop offset="0.41" stop-color="#DBAD18"/>
<stop offset="0.52" stop-color="#E2BB34"/>
<stop offset="0.63" stop-color="#E6C444"/>
<stop offset="0.7" stop-color="#E8C74B"/>
<stop offset="0.78" stop-color="#E4BF47"/>
<stop offset="0.88" stop-color="#DCAC3E"/>
<stop offset="1" stop-color="#D08E30"/>
</linearGradient>
<linearGradient id="paint10_linear_943_42912" x1="23.7616" y1="23.7622" x2="26.8578" y2="26.8584" gradientUnits="userSpaceOnUse">
<stop stop-color="#F2F2F2"/>
<stop offset="1" stop-color="white"/>
</linearGradient>
<linearGradient id="paint11_linear_943_42912" x1="24.0686" y1="24.071" x2="27.0448" y2="27.0472" gradientUnits="userSpaceOnUse">
<stop stop-color="#E6E6E6"/>
<stop offset="1" stop-color="#8C8C8C"/>
</linearGradient>
<linearGradient id="paint12_linear_943_42912" x1="16.8142" y1="42.4987" x2="20.9834" y2="42.4987" gradientUnits="userSpaceOnUse">
<stop stop-color="#DAA834"/>
<stop offset="0.13" stop-color="#FDF3A4"/>
<stop offset="0.36" stop-color="#D8A70A"/>
<stop offset="0.41" stop-color="#DBAD18"/>
<stop offset="0.52" stop-color="#E2BB34"/>
<stop offset="0.63" stop-color="#E6C444"/>
<stop offset="0.7" stop-color="#E8C74B"/>
<stop offset="0.78" stop-color="#E4BF47"/>
<stop offset="0.88" stop-color="#DCAC3E"/>
<stop offset="1" stop-color="#D08E30"/>
</linearGradient>
<linearGradient id="paint13_linear_943_42912" x1="16" y1="42.4993" x2="20.3787" y2="42.4993" gradientUnits="userSpaceOnUse">
<stop stop-color="#F2F2F2"/>
<stop offset="1" stop-color="white"/>
</linearGradient>
<linearGradient id="paint14_linear_943_42912" x1="16.4342" y1="42.4978" x2="20.644" y2="42.4978" gradientUnits="userSpaceOnUse">
<stop stop-color="#E6E6E6"/>
<stop offset="1" stop-color="#8C8C8C"/>
</linearGradient>
<linearGradient id="paint15_linear_943_42912" x1="24.3364" y1="60.6629" x2="27.2844" y2="57.7149" gradientUnits="userSpaceOnUse">
<stop stop-color="#DAA834"/>
<stop offset="0.13" stop-color="#FDF3A4"/>
<stop offset="0.36" stop-color="#D8A70A"/>
<stop offset="0.41" stop-color="#DBAD18"/>
<stop offset="0.52" stop-color="#E2BB34"/>
<stop offset="0.63" stop-color="#E6C444"/>
<stop offset="0.7" stop-color="#E8C74B"/>
<stop offset="0.78" stop-color="#E4BF47"/>
<stop offset="0.88" stop-color="#DCAC3E"/>
<stop offset="1" stop-color="#D08E30"/>
</linearGradient>
<linearGradient id="paint16_linear_943_42912" x1="23.7607" y1="61.2382" x2="26.8575" y2="58.1414" gradientUnits="userSpaceOnUse">
<stop stop-color="#F2F2F2"/>
<stop offset="1" stop-color="white"/>
</linearGradient>
<linearGradient id="paint17_linear_943_42912" x1="24.0678" y1="60.9327" x2="27.0446" y2="57.9559" gradientUnits="userSpaceOnUse">
<stop stop-color="#E6E6E6"/>
<stop offset="1" stop-color="#8C8C8C"/>
</linearGradient>
<linearGradient id="paint18_linear_943_42912" x1="42.5" y1="68.1883" x2="42.5" y2="64.0184" gradientUnits="userSpaceOnUse">
<stop stop-color="#DAA834"/>
<stop offset="0.13" stop-color="#FDF3A4"/>
<stop offset="0.36" stop-color="#D8A70A"/>
<stop offset="0.41" stop-color="#DBAD18"/>
<stop offset="0.52" stop-color="#E2BB34"/>
<stop offset="0.63" stop-color="#E6C444"/>
<stop offset="0.7" stop-color="#E8C74B"/>
<stop offset="0.78" stop-color="#E4BF47"/>
<stop offset="0.88" stop-color="#DCAC3E"/>
<stop offset="1" stop-color="#D08E30"/>
</linearGradient>
<linearGradient id="paint19_linear_943_42912" x1="42.5" y1="69.0014" x2="42.5" y2="64.6227" gradientUnits="userSpaceOnUse">
<stop stop-color="#F2F2F2"/>
<stop offset="1" stop-color="white"/>
</linearGradient>
<linearGradient id="paint20_linear_943_42912" x1="42.5" y1="68.5672" x2="42.5" y2="64.3582" gradientUnits="userSpaceOnUse">
<stop stop-color="#E6E6E6"/>
<stop offset="1" stop-color="#8C8C8C"/>
</linearGradient>
<linearGradient id="paint21_linear_943_42912" x1="60.6629" y1="60.6626" x2="57.7143" y2="57.714" gradientUnits="userSpaceOnUse">
<stop stop-color="#DAA834"/>
<stop offset="0.13" stop-color="#FDF3A4"/>
<stop offset="0.36" stop-color="#D8A70A"/>
<stop offset="0.41" stop-color="#DBAD18"/>
<stop offset="0.52" stop-color="#E2BB34"/>
<stop offset="0.63" stop-color="#E6C444"/>
<stop offset="0.7" stop-color="#E8C74B"/>
<stop offset="0.78" stop-color="#E4BF47"/>
<stop offset="0.88" stop-color="#DCAC3E"/>
<stop offset="1" stop-color="#D08E30"/>
</linearGradient>
<linearGradient id="paint22_linear_943_42912" x1="61.238" y1="61.237" x2="58.1418" y2="58.1408" gradientUnits="userSpaceOnUse">
<stop stop-color="#F2F2F2"/>
<stop offset="1" stop-color="white"/>
</linearGradient>
<linearGradient id="paint23_linear_943_42912" x1="60.931" y1="60.9302" x2="57.9548" y2="57.954" gradientUnits="userSpaceOnUse">
<stop stop-color="#E6E6E6"/>
<stop offset="1" stop-color="#8C8C8C"/>
</linearGradient>
<linearGradient id="paint24_linear_943_42912" x1="68.1857" y1="42.4987" x2="64.0157" y2="42.4987" gradientUnits="userSpaceOnUse">
<stop stop-color="#DAA834"/>
<stop offset="0.13" stop-color="#FDF3A4"/>
<stop offset="0.36" stop-color="#D8A70A"/>
<stop offset="0.41" stop-color="#DBAD18"/>
<stop offset="0.52" stop-color="#E2BB34"/>
<stop offset="0.63" stop-color="#E6C444"/>
<stop offset="0.7" stop-color="#E8C74B"/>
<stop offset="0.78" stop-color="#E4BF47"/>
<stop offset="0.88" stop-color="#DCAC3E"/>
<stop offset="1" stop-color="#D08E30"/>
</linearGradient>
<linearGradient id="paint25_linear_943_42912" x1="68.9991" y1="42.4973" x2="64.6204" y2="42.4973" gradientUnits="userSpaceOnUse">
<stop stop-color="#F2F2F2"/>
<stop offset="1" stop-color="white"/>
</linearGradient>
<linearGradient id="paint26_linear_943_42912" x1="68.5649" y1="42.4974" x2="64.356" y2="42.4974" gradientUnits="userSpaceOnUse">
<stop stop-color="#E6E6E6"/>
<stop offset="1" stop-color="#8C8C8C"/>
</linearGradient>
<linearGradient id="paint27_linear_943_42912" x1="16.0008" y1="25.9384" x2="42.5008" y2="59.0622" gradientUnits="userSpaceOnUse">
<stop stop-color="#F8BE66"/>
<stop offset="1" stop-color="#B66E00"/>
</linearGradient>
<linearGradient id="paint28_linear_943_42912" x1="34.646" y1="28.8966" x2="50.3531" y2="56.1017" gradientUnits="userSpaceOnUse">
<stop stop-color="#DAA834"/>
<stop offset="0.13" stop-color="#FDF3A4"/>
<stop offset="0.3" stop-color="#D8A70A"/>
<stop offset="0.33" stop-color="#DBAD18"/>
<stop offset="0.41" stop-color="#E2BB34"/>
<stop offset="0.47" stop-color="#E6C444"/>
<stop offset="0.52" stop-color="#E8C74B"/>
<stop offset="0.7" stop-color="#F2DD77"/>
<stop offset="0.85" stop-color="#D08E30"/>
<stop offset="1" stop-color="#E3BD37"/>
</linearGradient>
<linearGradient id="paint29_linear_943_42912" x1="38.4828" y1="35.3918" x2="47.7278" y2="51.3827" gradientUnits="userSpaceOnUse">
<stop offset="0.01" stop-color="#F5C75E"/>
<stop offset="0.17" stop-color="#F6DD8C"/>
<stop offset="0.37" stop-color="#F5C75E"/>
<stop offset="0.57" stop-color="#F6D882"/>
<stop offset="0.75" stop-color="#F5C963"/>
<stop offset="0.89" stop-color="#F6DD8B"/>
<stop offset="0.92" stop-color="#F5DA85"/>
<stop offset="0.96" stop-color="#F5D274"/>
<stop offset="1" stop-color="#F5C75E"/>
</linearGradient>
</defs>
</svg>
