<?xml version="1.0" encoding="utf-8"?>
<!-- Generator: Adobe Illustrator 16.0.0, SVG Export Plug-In . SVG Version: 6.00 Build 0)  -->
<!DOCTYPE svg PUBLIC "-//W3C//DTD SVG 1.1//EN" "http://www.w3.org/Graphics/SVG/1.1/DTD/svg11.dtd">
<svg version="1.1" id="Layer_1" xmlns="http://www.w3.org/2000/svg" xmlns:xlink="http://www.w3.org/1999/xlink" x="0px" y="0px"
	 width="50px" height="45.517px" viewBox="0 0 50 45.517" enable-background="new 0 0 50 45.517" xml:space="preserve">
<g>
	<path fill-rule="evenodd" clip-rule="evenodd" fill="#198754" d="M19.688,23.112c0.97-1.188,1.903-2.359,2.863-3.506
		c5.286-6.31,11.047-12.136,17.62-17.119C41.188,1.715,42.251,1,43.313,0.292c0.246-0.165,0.58-0.271,0.874-0.276
		c1.538-0.027,3.076-0.01,4.614-0.014c0.512,0,0.903,0.189,1.105,0.677c0.215,0.518,0.04,0.941-0.349,1.297
		c-6.348,5.792-11.561,12.55-16.515,19.52c-4.291,6.039-8.287,12.272-12.031,18.667c-0.59,1.009-1.515,1.085-2.086,0.153
		c-4.023-6.557-8.561-12.76-13.059-18.99c-0.763-1.058-0.744-1.345,0.19-2.268c0.804-0.794,1.607-1.589,2.414-2.381
		c0.622-0.609,1.046-0.65,1.767-0.148c2.979,2.075,5.952,4.155,8.928,6.231C19.333,22.875,19.5,22.985,19.688,23.112z"/>
	<path fill-rule="evenodd" clip-rule="evenodd" fill="#479F76" d="M0,26.268C-0.008,16.028,7.325,7.583,16.975,6.284
		c2.998-0.404,5.948-0.16,8.837,0.764c0.553,0.177,0.987,0.45,1.044,1.078c0.072,0.789-0.677,1.274-1.531,1.085
		c-1.439-0.32-2.881-0.742-4.343-0.845C15.324,7.969,10.535,9.92,6.718,14.095c-3.181,3.478-4.627,7.647-4.513,12.359
		c0.194,8.102,6.537,15.35,14.542,16.613c9.397,1.483,17.911-4.242,20.072-13.516c0.532-2.283,0.546-4.589,0.129-6.897
		c-0.029-0.163-0.062-0.329-0.068-0.494c-0.029-0.63,0.337-1.096,0.924-1.189c0.555-0.089,1.137,0.274,1.203,0.893
		c0.173,1.598,0.449,3.211,0.37,4.802c-0.296,6.081-2.886,11.051-7.703,14.768c-4.291,3.311-9.192,4.631-14.57,3.877
		C8.299,44.079,1.589,37.46,0.228,28.745C0.077,27.777,0.046,26.791,0,26.268z"/>
</g>
</svg>
